<svg width="30" height="30" viewBox="0 0 30 30" fill="none" xmlns="http://www.w3.org/2000/svg">
<rect width="30" height="30" rx="15" fill="#5865F2"/>
<path d="M13.69 7C14.0069 7.04897 14.3303 7.0766 14.6433 7.14943C16.5836 7.60274 18.0395 8.67764 18.9032 10.4143C19.9487 12.5226 19.7331 14.5682 18.4201 16.5158C18.3213 16.6627 18.2019 16.7971 18.0824 16.949C18.1174 16.9867 18.1538 17.0256 18.1902 17.062C19.3625 18.2424 20.5357 19.4219 21.7098 20.6006C22.0267 20.9196 22.0864 21.29 21.8773 21.6266C21.8163 21.7225 21.7346 21.8045 21.6379 21.8672C21.5411 21.9299 21.4315 21.9717 21.3166 21.9898C21.2016 22.0079 21.084 22.0019 20.9717 21.9721C20.8594 21.9424 20.755 21.8896 20.6656 21.8174C20.6084 21.771 20.5552 21.7182 20.5019 21.6655L16.9797 18.1332C16.9533 18.1028 16.9294 18.0705 16.9083 18.0365C16.507 18.2412 16.1485 18.4546 15.7667 18.6116C14.0536 19.3123 12.3341 19.311 10.647 18.545C8.88201 17.7439 7.72872 16.4103 7.2248 14.5933C7.0002 13.8242 6.9431 13.0184 7.05711 12.2269C7.17112 11.4354 7.45376 10.6754 7.88716 9.99488C8.82356 8.47169 10.2041 7.52489 11.9886 7.13311C12.2769 7.06906 12.5744 7.04395 12.8679 7H13.69ZM13.2783 8.5822C12.3623 8.58245 11.467 8.84537 10.7056 9.3377C9.94427 9.83002 9.35103 10.5296 9.00099 11.348C8.65094 12.1664 8.55981 13.0668 8.73914 13.9352C8.91846 14.8037 9.36018 15.6012 10.0084 16.2269C10.6566 16.8526 11.4822 17.2784 12.3808 17.4503C13.2793 17.6222 14.2104 17.5326 15.0562 17.1928C15.9021 16.8529 16.6247 16.2782 17.1326 15.5412C17.6405 14.8042 17.9109 13.9381 17.9096 13.0525C17.9052 11.867 17.4156 10.7313 16.5478 9.89363C15.6799 9.056 14.5045 8.58451 13.2783 8.5822Z" fill="white"/>
</svg>
